<?xml version="1.0" ?><svg id="Layer_1" style="enable-background:new 0 0 242.9 242.9;" version="1.1" viewBox="0 0 242.9 242.9" xml:space="preserve" xmlns="http://www.w3.org/2000/svg" xmlns:xlink="http://www.w3.org/1999/xlink"><style type="text/css">
	.st0{fill:#BB80B7;}
</style><path class="st0" d="M200.9,0H42C18.8,0,0,18.8,0,42v159c0,23.2,18.8,42,42,42h159c23.2,0,42-18.8,42-42V42  C242.9,18.8,224.1,0,200.9,0z M118.3,124.6c-5.6,5.8-14.5,8.5-21.7,8.5c-1.2,0-2.4,0-3.4,0v33.2H75.9V78.4  c4.9-1.1,11.5-1.7,18.1-1.7c10.3,0,18.4,1.5,24.2,6.9c5.3,4.6,7.7,12,7.7,19.6C125.9,112.8,123,119.5,118.3,124.6z M167,117.9  c-1.1-0.3-2.2-0.3-3.7-0.3c-3.7,0-8.6,2.5-10.6,9.3c-0.4,1.5-0.7,3.7-0.7,6.5v32.8h-17.5V121c0-6.5-0.3-13.5-0.5-19.4h15.1l0.9,9.4  h0.4c2.9-6.9,8.1-10.4,12.8-10.4c1.7,0,2.6,0,3.7,0.3V117.9z M108.7,104.6c0,8.3-4,14.5-12.7,14.5c-1.1,0-2,0-2.8-0.3V91.4  c1.1-0.4,2.6-0.7,4.2-0.7C105.5,90.7,108.7,96.8,108.7,104.6z"/></svg>